<svg width="48" height="48" viewBox="0 0 48 48" fill="none" xmlns="http://www.w3.org/2000/svg">
  <defs>
    <linearGradient id="tend-g" x1="2" y1="2" x2="46" y2="46" gradientUnits="userSpaceOnUse">
      <stop stop-color="#3bbd78"/>
      <stop offset="1" stop-color="#1b7d4d"/>
    </linearGradient>
  </defs>
  <rect width="48" height="48" rx="14" fill="url(#tend-g)"/>
  <rect x="0.6" y="0.6" width="46.8" height="46.8" rx="13.4" fill="none" stroke="rgba(255,255,255,0.16)"/>
  <rect x="9" y="32.6" width="30" height="3" rx="1.5" fill="#fff"/>
  <rect x="14" y="35.2" width="2.8" height="6.4" rx="1.4" fill="#fff"/>
  <rect x="31.2" y="35.2" width="2.8" height="6.4" rx="1.4" fill="#fff"/>
  <rect x="10" y="8" width="24" height="17" rx="6" fill="#fff"/>
  <path d="M16.5 24 L13.6 29.6 L21.4 24 Z" fill="#fff"/>
  <path d="M16.8 16.6 l3.5 3.5 L29 11.4" stroke="#15693d" stroke-width="3" fill="none" stroke-linecap="round" stroke-linejoin="round"/>
  <path d="M39 4.4c.42 2.9 1.3 3.78 4.2 4.2-2.9.42-3.78 1.3-4.2 4.2-.42-2.9-1.3-3.78-4.2-4.2 2.9-.42 3.78-1.3 4.2-4.2Z" fill="#fff"/>
</svg>
